<?xml version="1.0" encoding="UTF-8" standalone="no"?>
<!DOCTYPE svg PUBLIC "-//W3C//DTD SVG 1.1//EN"
 "http://www.w3.org/Graphics/SVG/1.1/DTD/svg11.dtd">
<!-- Generated by graphviz version 2.43.0 (0)
 -->
<!-- Title: %3 Pages: 1 -->
<svg width="1026pt" height="851pt"
 viewBox="0.00 0.00 1026.00 851.00" xmlns="http://www.w3.org/2000/svg" xmlns:xlink="http://www.w3.org/1999/xlink">
<g id="graph0" class="graph" transform="scale(1 1) rotate(0) translate(4 847)">
<title>%3</title>
<polygon fill="white" stroke="transparent" points="-4,4 -4,-847 1022,-847 1022,4 -4,4"/>
<!-- com.lsc.App -->
<g id="node1" class="node">
<title>com.lsc.App</title>
<polygon fill="#fff2b6" stroke="black" points="529.5,-843 106.5,-843 106.5,-600 529.5,-600 529.5,-843"/>
<text text-anchor="start" x="272" y="-825.9" font-family="Courier, Regular" font-size="12.00">public class</text>
<text text-anchor="start" x="284" y="-807.3" font-family="Courier, Regular" font-weight="bold" font-size="14.00">com.lsc.</text>
<text text-anchor="start" x="299" y="-782.5" font-family="Courier, Regular" font-weight="bold" font-size="20.00">App</text>
<polygon fill="#ccc191" stroke="transparent" points="116,-755.5 116,-772.5 521,-772.5 521,-755.5 116,-755.5"/>
<text text-anchor="start" x="295.5" y="-761.9" font-family="Courier, Regular" font-weight="bold" font-size="12.00">FIELDS</text>
<text text-anchor="start" x="293" y="-739.3" font-family="Courier, Regular" font-size="14.00"> Dog</text>
<text text-anchor="start" x="333" y="-740.3" font-family="Courier, Regular" font-weight="bold" font-size="14.00">duck</text>
<text text-anchor="start" x="269" y="-718.3" font-family="Courier, Regular" font-size="14.00"> Person</text>
<text text-anchor="start" x="333" y="-719.3" font-family="Courier, Regular" font-weight="bold" font-size="14.00">joe</text>
<text text-anchor="start" x="293" y="-697.3" font-family="Courier, Regular" font-size="14.00"> Cat</text>
<text text-anchor="start" x="333" y="-698.3" font-family="Courier, Regular" font-weight="bold" font-size="14.00">miau</text>
<polygon fill="#ccc191" stroke="transparent" points="118,-669.5 118,-686.5 517,-686.5 517,-669.5 118,-669.5"/>
<text text-anchor="start" x="291" y="-675.9" font-family="Courier, Regular" font-weight="bold" font-size="12.00">METHODS</text>
<text text-anchor="start" x="120" y="-655.3" font-family="Courier, Regular" font-size="14.00"> public </text>
<text text-anchor="start" x="187" y="-655.3" font-family="Courier, Regular" font-weight="bold" font-size="14.00">&lt;constructor&gt;</text>
<text text-anchor="start" x="301" y="-655.3" font-family="Courier, Regular" font-weight="bold" font-size="14.00">App</text>
<text text-anchor="start" x="326" y="-655.3" font-family="Courier, Regular" font-size="14.00"> </text>
<text text-anchor="start" x="432" y="-654.3" font-family="Courier, Regular" font-size="14.00">()</text>
<text text-anchor="start" x="138" y="-633.3" font-family="Courier, Regular" font-size="14.00"> public static void</text>
<text text-anchor="start" x="301" y="-634.3" font-family="Courier, Regular" font-weight="bold" font-size="14.00">main</text>
<text text-anchor="start" x="335" y="-634.3" font-family="Courier, Regular" font-size="14.00"> </text>
<text text-anchor="start" x="432" y="-633.3" font-family="Courier, Regular" font-size="14.00">(String[])</text>
<text text-anchor="start" x="129" y="-612.3" font-family="Courier, Regular" font-size="14.00"> private static void</text>
<text text-anchor="start" x="301" y="-613.3" font-family="Courier, Regular" font-weight="bold" font-size="14.00">testClassGraph</text>
<text text-anchor="start" x="417" y="-613.3" font-family="Courier, Regular" font-size="14.00"> </text>
<text text-anchor="start" x="432" y="-612.3" font-family="Courier, Regular" font-size="14.00">()</text>
</g>
<!-- com.lsc.domain.Animal -->
<g id="node2" class="node">
<title>com.lsc.domain.Animal</title>
<polygon fill="#fff2b6" stroke="black" points="634.5,-459 345.5,-459 345.5,-342 634.5,-342 634.5,-459"/>
<text text-anchor="start" x="445" y="-441.9" font-family="Courier, Regular" font-size="12.00">public class</text>
<text text-anchor="start" x="428.5" y="-423.3" font-family="Courier, Regular" font-weight="bold" font-size="14.00">com.lsc.domain.</text>
<text text-anchor="start" x="454" y="-398.5" font-family="Courier, Regular" font-weight="bold" font-size="20.00">Animal</text>
<polygon fill="#ccc191" stroke="transparent" points="357,-369.5 357,-386.5 624,-386.5 624,-369.5 357,-369.5"/>
<text text-anchor="start" x="464" y="-375.9" font-family="Courier, Regular" font-weight="bold" font-size="12.00">METHODS</text>
<text text-anchor="start" x="359" y="-355.3" font-family="Courier, Regular" font-size="14.00"> public </text>
<text text-anchor="start" x="426" y="-355.3" font-family="Courier, Regular" font-weight="bold" font-size="14.00">&lt;constructor&gt;</text>
<text text-anchor="start" x="540" y="-355.3" font-family="Courier, Regular" font-weight="bold" font-size="14.00">Animal</text>
<text text-anchor="start" x="590" y="-355.3" font-family="Courier, Regular" font-size="14.00"> </text>
<text text-anchor="start" x="605" y="-354.3" font-family="Courier, Regular" font-size="14.00">()</text>
</g>
<!-- com.lsc.domain.Cat -->
<g id="node3" class="node">
<title>com.lsc.domain.Cat</title>
<polygon fill="#fff2b6" stroke="black" points="290,-480 24,-480 24,-321 290,-321 290,-480"/>
<text text-anchor="start" x="110.5" y="-462.9" font-family="Courier, Regular" font-size="12.00">public class</text>
<text text-anchor="start" x="94" y="-444.3" font-family="Courier, Regular" font-weight="bold" font-size="14.00">com.lsc.domain.</text>
<text text-anchor="start" x="137.5" y="-419.5" font-family="Courier, Regular" font-weight="bold" font-size="20.00">Cat</text>
<polygon fill="#ccc191" stroke="transparent" points="33,-392.5 33,-409.5 281,-409.5 281,-392.5 33,-392.5"/>
<text text-anchor="start" x="134" y="-398.9" font-family="Courier, Regular" font-weight="bold" font-size="12.00">FIELDS</text>
<text text-anchor="start" x="124" y="-376.3" font-family="Courier, Regular" font-size="14.00"> Util</text>
<text text-anchor="start" x="172" y="-377.3" font-family="Courier, Regular" font-weight="bold" font-size="14.00">u1</text>
<polygon fill="#ccc191" stroke="transparent" points="35,-348.5 35,-365.5 277,-365.5 277,-348.5 35,-348.5"/>
<text text-anchor="start" x="129.5" y="-354.9" font-family="Courier, Regular" font-weight="bold" font-size="12.00">METHODS</text>
<text text-anchor="start" x="37" y="-334.3" font-family="Courier, Regular" font-size="14.00"> public </text>
<text text-anchor="start" x="104" y="-334.3" font-family="Courier, Regular" font-weight="bold" font-size="14.00">&lt;constructor&gt;</text>
<text text-anchor="start" x="218" y="-334.3" font-family="Courier, Regular" font-weight="bold" font-size="14.00">Cat</text>
<text text-anchor="start" x="243" y="-334.3" font-family="Courier, Regular" font-size="14.00"> </text>
<text text-anchor="start" x="258" y="-333.3" font-family="Courier, Regular" font-size="14.00">()</text>
</g>
<!-- com.lsc.domain.Cat&#45;&gt;com.lsc.App -->
<g id="edge3" class="edge">
<title>com.lsc.domain.Cat&#45;&gt;com.lsc.App</title>
<path fill="none" stroke="black" d="M208.28,-503.11C223.78,-533.82 240.96,-567.86 257.03,-599.7"/>
<polygon fill="none" stroke="black" points="187.87,-484.86 205.73,-475.85 214.74,-493.7 196.88,-502.71 187.87,-484.86"/>
<polyline fill="none" stroke="black" points="205.81,-498.21 208.06,-502.67 "/>
</g>
<!-- com.lsc.domain.Dog -->
<g id="node4" class="node">
<title>com.lsc.domain.Dog</title>
<polygon fill="#fff2b6" stroke="black" points="1018,-201 636,-201 636,0 1018,0 1018,-201"/>
<text text-anchor="start" x="780.5" y="-183.9" font-family="Courier, Regular" font-size="12.00">public class</text>
<text text-anchor="start" x="764" y="-165.3" font-family="Courier, Regular" font-weight="bold" font-size="14.00">com.lsc.domain.</text>
<text text-anchor="start" x="807.5" y="-140.5" font-family="Courier, Regular" font-weight="bold" font-size="20.00">Dog</text>
<polygon fill="#ccc191" stroke="transparent" points="645,-113.5 645,-130.5 1009,-130.5 1009,-113.5 645,-113.5"/>
<text text-anchor="start" x="804" y="-119.9" font-family="Courier, Regular" font-weight="bold" font-size="12.00">FIELDS</text>
<text text-anchor="start" x="728" y="-97.3" font-family="Courier, Regular" font-size="14.00"> private String</text>
<text text-anchor="start" x="858" y="-98.3" font-family="Courier, Regular" font-weight="bold" font-size="14.00">nickname</text>
<polygon fill="#ccc191" stroke="transparent" points="647,-69.5 647,-86.5 1005,-86.5 1005,-69.5 647,-69.5"/>
<text text-anchor="start" x="799.5" y="-75.9" font-family="Courier, Regular" font-weight="bold" font-size="12.00">METHODS</text>
<text text-anchor="start" x="649" y="-55.3" font-family="Courier, Regular" font-size="14.00"> public </text>
<text text-anchor="start" x="716" y="-55.3" font-family="Courier, Regular" font-weight="bold" font-size="14.00">&lt;constructor&gt;</text>
<text text-anchor="start" x="830" y="-55.3" font-family="Courier, Regular" font-weight="bold" font-size="14.00">Dog</text>
<text text-anchor="start" x="855" y="-55.3" font-family="Courier, Regular" font-size="14.00"> </text>
<text text-anchor="start" x="936" y="-54.3" font-family="Courier, Regular" font-size="14.00">()</text>
<text text-anchor="start" x="708" y="-33.3" font-family="Courier, Regular" font-size="14.00"> public String</text>
<text text-anchor="start" x="830" y="-34.3" font-family="Courier, Regular" font-weight="bold" font-size="14.00">getNickname</text>
<text text-anchor="start" x="921" y="-34.3" font-family="Courier, Regular" font-size="14.00"> </text>
<text text-anchor="start" x="936" y="-33.3" font-family="Courier, Regular" font-size="14.00">()</text>
<text text-anchor="start" x="724" y="-12.3" font-family="Courier, Regular" font-size="14.00"> public void</text>
<text text-anchor="start" x="830" y="-13.3" font-family="Courier, Regular" font-weight="bold" font-size="14.00">setNickname</text>
<text text-anchor="start" x="921" y="-13.3" font-family="Courier, Regular" font-size="14.00"> </text>
<text text-anchor="start" x="936" y="-12.3" font-family="Courier, Regular" font-size="14.00">(String)</text>
</g>
<!-- com.lsc.domain.Dog&#45;&gt;com.lsc.App -->
<g id="edge2" class="edge">
<title>com.lsc.domain.Dog&#45;&gt;com.lsc.App</title>
<path fill="none" stroke="black" d="M611.11,-135.49C496.6,-158.3 372.37,-192.37 337,-237 294.12,-291.11 298.47,-475.07 307.08,-599.82"/>
<polygon fill="none" stroke="black" points="633.84,-120.9 637.64,-140.54 618.01,-144.34 614.21,-124.7 633.84,-120.9"/>
<polyline fill="none" stroke="black" points="616.11,-134.52 611.2,-135.47 "/>
</g>
<!-- com.lsc.domain.Dog&#45;&gt;com.lsc.domain.Animal -->
<g id="edge5" class="edge">
<title>com.lsc.domain.Dog&#45;&gt;com.lsc.domain.Animal</title>
<path fill="none" stroke="black" d="M687.08,-201.11C672.24,-212.85 657.61,-224.94 644,-237 614.09,-263.49 583.38,-294.9 557.32,-323.01"/>
<polygon fill="black" stroke="black" points="550.51,-317.49 540.1,-341.85 563.42,-329.3 550.51,-317.49"/>
</g>
<!-- com.lsc.domain.Person -->
<g id="node5" class="node">
<title>com.lsc.domain.Person</title>
<polygon fill="#fff2b6" stroke="black" points="1001.5,-564 652.5,-564 652.5,-237 1001.5,-237 1001.5,-564"/>
<text text-anchor="start" x="781" y="-546.9" font-family="Courier, Regular" font-size="12.00">public class</text>
<text text-anchor="start" x="764.5" y="-528.3" font-family="Courier, Regular" font-weight="bold" font-size="14.00">com.lsc.domain.</text>
<text text-anchor="start" x="790" y="-503.5" font-family="Courier, Regular" font-weight="bold" font-size="20.00">Person</text>
<polygon fill="#ccc191" stroke="transparent" points="662,-476.5 662,-493.5 993,-493.5 993,-476.5 662,-476.5"/>
<text text-anchor="start" x="804.5" y="-482.9" font-family="Courier, Regular" font-weight="bold" font-size="12.00">FIELDS</text>
<text text-anchor="start" x="769" y="-460.3" font-family="Courier, Regular" font-size="14.00"> private int</text>
<text text-anchor="start" x="875" y="-461.3" font-family="Courier, Regular" font-weight="bold" font-size="14.00">age</text>
<text text-anchor="start" x="769" y="-439.3" font-family="Courier, Regular" font-size="14.00"> private Dog</text>
<text text-anchor="start" x="875" y="-440.3" font-family="Courier, Regular" font-weight="bold" font-size="14.00">dog</text>
<text text-anchor="start" x="745" y="-418.3" font-family="Courier, Regular" font-size="14.00"> private String</text>
<text text-anchor="start" x="875" y="-419.3" font-family="Courier, Regular" font-weight="bold" font-size="14.00">name</text>
<polygon fill="#ccc191" stroke="transparent" points="664,-390.5 664,-407.5 989,-407.5 989,-390.5 664,-390.5"/>
<text text-anchor="start" x="800" y="-396.9" font-family="Courier, Regular" font-weight="bold" font-size="12.00">METHODS</text>
<text text-anchor="start" x="666" y="-376.3" font-family="Courier, Regular" font-size="14.00"> public </text>
<text text-anchor="start" x="733" y="-376.3" font-family="Courier, Regular" font-weight="bold" font-size="14.00">&lt;constructor&gt;</text>
<text text-anchor="start" x="847" y="-376.3" font-family="Courier, Regular" font-weight="bold" font-size="14.00">Person</text>
<text text-anchor="start" x="897" y="-376.3" font-family="Courier, Regular" font-size="14.00"> </text>
<text text-anchor="start" x="920" y="-375.3" font-family="Courier, Regular" font-size="14.00">()</text>
<text text-anchor="start" x="750" y="-354.3" font-family="Courier, Regular" font-size="14.00"> public int</text>
<text text-anchor="start" x="847" y="-355.3" font-family="Courier, Regular" font-weight="bold" font-size="14.00">getAge</text>
<text text-anchor="start" x="897" y="-355.3" font-family="Courier, Regular" font-size="14.00"> </text>
<text text-anchor="start" x="920" y="-354.3" font-family="Courier, Regular" font-size="14.00">()</text>
<text text-anchor="start" x="750" y="-333.3" font-family="Courier, Regular" font-size="14.00"> public Dog</text>
<text text-anchor="start" x="847" y="-334.3" font-family="Courier, Regular" font-weight="bold" font-size="14.00">getDog</text>
<text text-anchor="start" x="897" y="-334.3" font-family="Courier, Regular" font-size="14.00"> </text>
<text text-anchor="start" x="920" y="-333.3" font-family="Courier, Regular" font-size="14.00">()</text>
<text text-anchor="start" x="725" y="-312.3" font-family="Courier, Regular" font-size="14.00"> public String</text>
<text text-anchor="start" x="847" y="-313.3" font-family="Courier, Regular" font-weight="bold" font-size="14.00">getName</text>
<text text-anchor="start" x="905" y="-313.3" font-family="Courier, Regular" font-size="14.00"> </text>
<text text-anchor="start" x="920" y="-312.3" font-family="Courier, Regular" font-size="14.00">()</text>
<text text-anchor="start" x="741" y="-291.3" font-family="Courier, Regular" font-size="14.00"> public void</text>
<text text-anchor="start" x="847" y="-292.3" font-family="Courier, Regular" font-weight="bold" font-size="14.00">setAge</text>
<text text-anchor="start" x="897" y="-292.3" font-family="Courier, Regular" font-size="14.00"> </text>
<text text-anchor="start" x="920" y="-291.3" font-family="Courier, Regular" font-size="14.00">(int)</text>
<text text-anchor="start" x="741" y="-270.3" font-family="Courier, Regular" font-size="14.00"> public void</text>
<text text-anchor="start" x="847" y="-271.3" font-family="Courier, Regular" font-weight="bold" font-size="14.00">setDog</text>
<text text-anchor="start" x="897" y="-271.3" font-family="Courier, Regular" font-size="14.00"> </text>
<text text-anchor="start" x="920" y="-270.3" font-family="Courier, Regular" font-size="14.00">(Dog)</text>
<text text-anchor="start" x="741" y="-249.3" font-family="Courier, Regular" font-size="14.00"> public void</text>
<text text-anchor="start" x="847" y="-250.3" font-family="Courier, Regular" font-weight="bold" font-size="14.00">setName</text>
<text text-anchor="start" x="905" y="-250.3" font-family="Courier, Regular" font-size="14.00"> </text>
<text text-anchor="start" x="920" y="-249.3" font-family="Courier, Regular" font-size="14.00">(String)</text>
</g>
<!-- com.lsc.domain.Dog&#45;&gt;com.lsc.domain.Person -->
<g id="edge6" class="edge">
<title>com.lsc.domain.Dog&#45;&gt;com.lsc.domain.Person</title>
<path fill="none" stroke="black" d="M813.66,-226.14C813.61,-229.72 813.58,-233.32 813.55,-236.93"/>
<polygon fill="none" stroke="black" points="804.18,-200.94 824.18,-201.35 823.76,-221.35 803.77,-220.93 804.18,-200.94"/>
<polyline fill="none" stroke="black" points="813.77,-221.14 813.66,-226.14 "/>
</g>
<!-- com.lsc.domain.Dog&#45;&gt;com.lsc.domain.Person -->
<g id="edge7" class="edge">
<title>com.lsc.domain.Dog&#45;&gt;com.lsc.domain.Person</title>
<path fill="none" stroke="black" d="M827,-226.14C827,-229.72 827,-233.32 827,-236.93"/>
<polygon fill="black" stroke="black" points="817,-201.14 837,-201.14 837,-221.14 817,-221.14 817,-201.14"/>
<polyline fill="none" stroke="black" points="827,-221.14 827,-226.14 "/>
</g>
<!-- com.lsc.domain.Dog&#45;&gt;com.lsc.domain.Person -->
<g id="edge8" class="edge">
<title>com.lsc.domain.Dog&#45;&gt;com.lsc.domain.Person</title>
<path fill="none" stroke="black" d="M840.34,-226.14C840.39,-229.72 840.42,-233.32 840.45,-236.93"/>
<polygon fill="black" stroke="black" points="829.82,-201.35 849.82,-200.94 850.23,-220.93 830.24,-221.35 829.82,-201.35"/>
<polyline fill="none" stroke="black" points="840.23,-221.14 840.34,-226.14 "/>
</g>
<!-- com.lsc.domain.Person&#45;&gt;com.lsc.App -->
<g id="edge1" class="edge">
<title>com.lsc.domain.Person&#45;&gt;com.lsc.App</title>
<path fill="none" stroke="black" d="M631.4,-571.98C595.61,-594.75 562.45,-612.96 529.7,-629.51"/>
<polygon fill="none" stroke="black" points="647.03,-549.86 657.95,-566.61 641.2,-577.53 630.28,-560.78 647.03,-549.86"/>
<polyline fill="none" stroke="black" points="635.74,-569.16 631.55,-571.89 "/>
</g>
<!-- com.lsc.util.Util -->
<g id="node6" class="node">
<title>com.lsc.util.Util</title>
<polygon fill="#fff2b6" stroke="black" points="314,-169.5 0,-169.5 0,-31.5 314,-31.5 314,-169.5"/>
<text text-anchor="start" x="111.5" y="-152.9" font-family="Courier, Regular" font-size="12.00">public class</text>
<text text-anchor="start" x="103" y="-134.3" font-family="Courier, Regular" font-weight="bold" font-size="14.00">com.lsc.util.</text>
<text text-anchor="start" x="132.5" y="-109.5" font-family="Courier, Regular" font-weight="bold" font-size="20.00">Util</text>
<polygon fill="#ccc191" stroke="transparent" points="11,-80.5 11,-97.5 303,-97.5 303,-80.5 11,-80.5"/>
<text text-anchor="start" x="130.5" y="-86.9" font-family="Courier, Regular" font-weight="bold" font-size="12.00">METHODS</text>
<text text-anchor="start" x="13" y="-66.3" font-family="Courier, Regular" font-size="14.00"> public </text>
<text text-anchor="start" x="80" y="-66.3" font-family="Courier, Regular" font-weight="bold" font-size="14.00">&lt;constructor&gt;</text>
<text text-anchor="start" x="194" y="-66.3" font-family="Courier, Regular" font-weight="bold" font-size="14.00">Util</text>
<text text-anchor="start" x="228" y="-66.3" font-family="Courier, Regular" font-size="14.00"> </text>
<text text-anchor="start" x="284" y="-65.3" font-family="Courier, Regular" font-size="14.00">()</text>
<text text-anchor="start" x="14" y="-44.3" font-family="Courier, Regular" font-size="14.00"> public static String</text>
<text text-anchor="start" x="194" y="-45.3" font-family="Courier, Regular" font-weight="bold" font-size="14.00">iAmUseful</text>
<text text-anchor="start" x="269" y="-45.3" font-family="Courier, Regular" font-size="14.00"> </text>
<text text-anchor="start" x="284" y="-44.3" font-family="Courier, Regular" font-size="14.00">()</text>
</g>
<!-- com.lsc.util.Util&#45;&gt;com.lsc.domain.Cat -->
<g id="edge4" class="edge">
<title>com.lsc.util.Util&#45;&gt;com.lsc.domain.Cat</title>
<path fill="none" stroke="black" d="M157,-195.06C157,-235.5 157,-282.31 157,-320.92"/>
<polygon fill="none" stroke="black" points="147,-169.87 167,-169.87 167,-189.87 147,-189.87 147,-169.87"/>
<polyline fill="none" stroke="black" points="157,-189.87 157,-194.87 "/>
</g>
</g>
</svg>
