<?xml version="1.0" encoding="UTF-8" standalone="no"?>
<!DOCTYPE svg PUBLIC "-//W3C//DTD SVG 1.1//EN"
 "http://www.w3.org/Graphics/SVG/1.1/DTD/svg11.dtd">
<!-- Generated by graphviz version 2.43.0 (0)
 -->
<!-- Title: %3 Pages: 1 -->
<svg width="302pt" height="522pt"
 viewBox="0.00 0.00 302.00 522.00" xmlns="http://www.w3.org/2000/svg" xmlns:xlink="http://www.w3.org/1999/xlink">
<g id="graph0" class="graph" transform="scale(1 1) rotate(0) translate(4 518)">
<title>%3</title>
<polygon fill="white" stroke="transparent" points="-4,4 -4,-518 298,-518 298,4 -4,4"/>
<!-- com.lsc.domain.Cat -->
<g id="node1" class="node">
<title>com.lsc.domain.Cat</title>
<polygon fill="#fff2b6" stroke="black" points="138,-294 0,-294 0,-220 138,-220 138,-294"/>
<text text-anchor="start" x="23.5" y="-277.4" font-family="Courier, Regular" font-size="12.00">public class</text>
<text text-anchor="start" x="11" y="-258.8" font-family="Courier, Regular" font-weight="bold" font-size="14.00">com.lsc.domain</text>
<text text-anchor="start" x="50.5" y="-234" font-family="Courier, Regular" font-weight="bold" font-size="20.00">Cat</text>
</g>
<!-- com.lsc.util.Util -->
<g id="node2" class="node">
<title>com.lsc.util.Util</title>
<polygon fill="#fff2b6" stroke="black" points="207,-514 85,-514 85,-440 207,-440 207,-514"/>
<text text-anchor="start" x="100.5" y="-497.4" font-family="Courier, Regular" font-size="12.00">public class</text>
<text text-anchor="start" x="96" y="-478.8" font-family="Courier, Regular" font-weight="bold" font-size="14.00">com.lsc.util</text>
<text text-anchor="start" x="121.5" y="-454" font-family="Courier, Regular" font-weight="bold" font-size="20.00">Util</text>
</g>
<!-- com.lsc.domain.Cat&#45;&gt;com.lsc.util.Util -->
<g id="edge5" class="edge">
<title>com.lsc.domain.Cat&#45;&gt;com.lsc.util.Util</title>
<path fill="none" stroke="black" d="M81.89,-294.49C93.58,-327.6 111.05,-377.05 124.8,-415.97"/>
<polygon fill="black" stroke="black" points="116.62,-419.1 133.2,-439.76 133.12,-413.27 116.62,-419.1"/>
</g>
<!-- com.lsc.domain.Animal -->
<g id="node3" class="node">
<title>com.lsc.domain.Animal</title>
<polygon fill="#fff2b6" stroke="black" points="279,-404 141,-404 141,-330 279,-330 279,-404"/>
<text text-anchor="start" x="164.5" y="-387.4" font-family="Courier, Regular" font-size="12.00">public class</text>
<text text-anchor="start" x="152" y="-368.8" font-family="Courier, Regular" font-weight="bold" font-size="14.00">com.lsc.domain</text>
<text text-anchor="start" x="173.5" y="-344" font-family="Courier, Regular" font-weight="bold" font-size="20.00">Animal</text>
</g>
<!-- com.lsc.domain.Animal&#45;&gt;com.lsc.util.Util -->
<g id="edge4" class="edge">
<title>com.lsc.domain.Animal&#45;&gt;com.lsc.util.Util</title>
<path fill="none" stroke="black" d="M188.51,-404.26C185.87,-408.72 183.13,-413.35 180.36,-418.02"/>
<polygon fill="black" stroke="black" points="172.76,-413.68 167.54,-439.65 187.81,-422.6 172.76,-413.68"/>
</g>
<!-- com.lsc.App -->
<g id="node4" class="node">
<title>com.lsc.App</title>
<polygon fill="#fff2b6" stroke="black" points="222.5,-74 109.5,-74 109.5,0 222.5,0 222.5,-74"/>
<text text-anchor="start" x="121" y="-57.4" font-family="Courier, Regular" font-size="12.00">public class</text>
<text text-anchor="start" x="137.5" y="-38.8" font-family="Courier, Regular" font-weight="bold" font-size="14.00">com.lsc</text>
<text text-anchor="start" x="148" y="-14" font-family="Courier, Regular" font-weight="bold" font-size="20.00">App</text>
</g>
<!-- com.lsc.App&#45;&gt;com.lsc.domain.Cat -->
<g id="edge1" class="edge">
<title>com.lsc.App&#45;&gt;com.lsc.domain.Cat</title>
<path fill="none" stroke="black" d="M116.1,-74.35C105.19,-84.67 94.86,-96.74 88,-110 74.7,-135.71 69.45,-167.25 67.73,-194.42"/>
<polygon fill="black" stroke="black" points="58.97,-194.53 67.02,-219.77 76.46,-195.02 58.97,-194.53"/>
</g>
<!-- com.lsc.domain.Person -->
<g id="node5" class="node">
<title>com.lsc.domain.Person</title>
<polygon fill="#fff2b6" stroke="black" points="235,-184 97,-184 97,-110 235,-110 235,-184"/>
<text text-anchor="start" x="120.5" y="-167.4" font-family="Courier, Regular" font-size="12.00">public class</text>
<text text-anchor="start" x="108" y="-148.8" font-family="Courier, Regular" font-weight="bold" font-size="14.00">com.lsc.domain</text>
<text text-anchor="start" x="129.5" y="-124" font-family="Courier, Regular" font-weight="bold" font-size="20.00">Person</text>
</g>
<!-- com.lsc.App&#45;&gt;com.lsc.domain.Person -->
<g id="edge3" class="edge">
<title>com.lsc.App&#45;&gt;com.lsc.domain.Person</title>
<path fill="none" stroke="black" d="M166,-74.26C166,-77.56 166,-80.95 166,-84.39"/>
<polygon fill="black" stroke="black" points="157.25,-84.65 166,-109.65 174.75,-84.65 157.25,-84.65"/>
</g>
<!-- com.lsc.domain.Dog -->
<g id="node6" class="node">
<title>com.lsc.domain.Dog</title>
<polygon fill="#fff2b6" stroke="black" points="294,-294 156,-294 156,-220 294,-220 294,-294"/>
<text text-anchor="start" x="179.5" y="-277.4" font-family="Courier, Regular" font-size="12.00">public class</text>
<text text-anchor="start" x="167" y="-258.8" font-family="Courier, Regular" font-weight="bold" font-size="14.00">com.lsc.domain</text>
<text text-anchor="start" x="206.5" y="-234" font-family="Courier, Regular" font-weight="bold" font-size="20.00">Dog</text>
</g>
<!-- com.lsc.App&#45;&gt;com.lsc.domain.Dog -->
<g id="edge2" class="edge">
<title>com.lsc.App&#45;&gt;com.lsc.domain.Dog</title>
<path fill="none" stroke="black" d="M217.52,-74.15C228.25,-84.4 238.09,-96.49 244,-110 255.65,-136.62 253.21,-168.38 246.89,-195.48"/>
<polygon fill="black" stroke="black" points="238.43,-193.26 239.98,-219.7 255.26,-198.06 238.43,-193.26"/>
</g>
<!-- com.lsc.domain.Person&#45;&gt;com.lsc.domain.Dog -->
<g id="edge7" class="edge">
<title>com.lsc.domain.Person&#45;&gt;com.lsc.domain.Dog</title>
<path fill="none" stroke="black" d="M185.81,-184.26C188.15,-188.54 190.57,-192.98 193.02,-197.46"/>
<polygon fill="black" stroke="black" points="185.48,-201.9 205.14,-219.65 200.83,-193.51 185.48,-201.9"/>
</g>
<!-- com.lsc.domain.Dog&#45;&gt;com.lsc.domain.Animal -->
<g id="edge6" class="edge">
<title>com.lsc.domain.Dog&#45;&gt;com.lsc.domain.Animal</title>
<path fill="none" stroke="black" d="M219.96,-294.26C219.49,-297.65 219.01,-301.13 218.52,-304.67"/>
<polygon fill="black" stroke="black" points="209.82,-303.68 215.05,-329.65 227.15,-306.09 209.82,-303.68"/>
</g>
</g>
</svg>
